<?xml version="1.0" encoding="UTF-8"?>
<svg xmlns="http://www.w3.org/2000/svg" xmlns:xlink="http://www.w3.org/1999/xlink" width="204" height="70" viewBox="0 0 204 70">
<path fill="none" stroke-width="0.4" stroke-linecap="butt" stroke-linejoin="round" stroke="rgb(0%, 0%, 0%)" stroke-opacity="1" stroke-miterlimit="10" d="M 204.863281 485 C 200.441406 476.339844 198.535156 464.582031 204.789062 457.5 C 211.039062 450.421875 225.445312 448.023438 239.535156 446.148438 C 253.621094 444.273438 267.390625 442.925781 280.816406 442.757812 C 294.242188 442.589844 307.324219 443.597656 320.332031 445.894531 C 333.339844 448.1875 346.277344 451.769531 361.214844 456.855469 C 376.15625 461.945312 393.097656 468.539062 399.625 478.195312 C 406.152344 487.851562 402.257812 500.566406 382.542969 506.429688 C 362.824219 512.289062 327.285156 511.300781 301.632812 509.992188 C 275.984375 508.683594 260.226562 507.054688 248.796875 506.128906 C 237.367188 505.207031 230.261719 504.988281 223.242188 502.101562 C 216.21875 499.214844 209.285156 493.660156 204.863281 485 Z M 204.863281 485 " transform="matrix(1, 0, 0, -1, -200, 512)"/>
</svg>
