<?xml version="1.0" encoding="UTF-8"?>
<svg xmlns="http://www.w3.org/2000/svg" xmlns:xlink="http://www.w3.org/1999/xlink" width="152" height="34" viewBox="0 0 152 34">
<path fill-rule="evenodd" fill="rgb(0%, 0%, 0%)" fill-opacity="1" d="M 151.164062 12.917969 C 151.164062 11.316406 148.761719 11.316406 148.761719 12.917969 C 148.761719 14.515625 151.164062 14.515625 151.164062 12.917969 Z M 151.164062 12.917969 "/>
<path fill-rule="evenodd" fill="rgb(0%, 0%, 0%)" fill-opacity="1" d="M 3.871094 12.929688 C 3.871094 11.332031 1.46875 11.332031 1.46875 12.929688 C 1.46875 14.53125 3.871094 14.53125 3.871094 12.929688 Z M 3.871094 12.929688 "/>
<path fill-rule="evenodd" fill="rgb(0%, 0%, 0%)" fill-opacity="1" d="M 38.644531 31.457031 C 38.644531 29.859375 36.242188 29.859375 36.242188 31.457031 C 36.242188 33.058594 38.644531 33.058594 38.644531 31.457031 Z M 38.644531 31.457031 "/>
<path fill-rule="evenodd" fill="rgb(0%, 0%, 0%)" fill-opacity="1" d="M 73.828125 13.59375 C 73.828125 11.992188 71.425781 11.992188 71.425781 13.59375 C 71.425781 15.191406 73.828125 15.191406 73.828125 13.59375 Z M 73.828125 13.59375 "/>
<path fill-rule="evenodd" fill="rgb(0%, 0%, 0%)" fill-opacity="1" d="M 112.421875 2.214844 C 112.421875 0.613281 110.023438 0.613281 110.023438 2.214844 C 110.023438 3.8125 112.421875 3.8125 112.421875 2.214844 Z M 112.421875 2.214844 "/>
<path fill="none" stroke-width="0.4" stroke-linecap="butt" stroke-linejoin="round" stroke="rgb(0%, 0%, 0%)" stroke-opacity="1" stroke-dasharray="1 3" stroke-miterlimit="10" d="M 239.4375 384.636719 C 241.179688 382.066406 244.0625 372.390625 249.894531 369.207031 C 255.730469 366.023438 268.164062 363.863281 274.445312 365.542969 C 280.722656 367.222656 281.695312 376.296875 287.574219 379.285156 C 293.449219 382.269531 302.359375 382.71875 309.714844 383.453125 C 317.070312 384.1875 325.277344 381.800781 331.695312 383.6875 C 338.113281 385.578125 341.226562 393.128906 348.222656 394.785156 C 355.21875 396.441406 367.246094 395.308594 373.675781 393.621094 C 380.101562 391.933594 384.605469 386.148438 386.792969 384.65625 " transform="matrix(1, 0, 0, -1, -237, 397)"/>
</svg>
